<?xml version="1.0" encoding="UTF-8" standalone="no"?>
<!DOCTYPE svg PUBLIC "-//W3C//DTD SVG 1.1//EN"
 "http://www.w3.org/Graphics/SVG/1.1/DTD/svg11.dtd">
<!-- Generated by graphviz version 2.40.1 (20161225.0304)
 -->
<!-- Title: %3 Pages: 1 -->
<svg width="300pt" height="173pt"
 viewBox="0.00 0.00 299.87 172.69" xmlns="http://www.w3.org/2000/svg" xmlns:xlink="http://www.w3.org/1999/xlink">
<g id="graph0" class="graph" transform="scale(1 1) rotate(0) translate(4 168.6934)">
<title>%3</title>
<polygon fill="#ffffff" stroke="transparent" points="-4,4 -4,-168.6934 295.8693,-168.6934 295.8693,4 -4,4"/>
<!-- A -->
<g id="node1" class="node">
<title>A</title>
<g id="a_node1"><a xlink:href="http://www.espn.com" xlink:title=" James L. Hooper v.&#10;David L. Olmstead">
<ellipse fill="none" stroke="#000000" cx="136.7947" cy="-137.8234" rx="90.5193" ry="26.7407"/>
<text text-anchor="middle" x="136.7947" y="-141.6234" font-family="Times,serif" font-size="14.00" fill="#000000"> James L. Hooper v.</text>
<text text-anchor="middle" x="136.7947" y="-126.6234" font-family="Times,serif" font-size="14.00" fill="#000000">David L. Olmstead</text>
</a>
</g>
</g>
<!-- p0 -->
<g id="node2" class="node">
<title>p0</title>
<ellipse fill="none" stroke="#000000" cx="59.7947" cy="-37.4767" rx="59.5901" ry="18"/>
<text text-anchor="middle" x="59.7947" y="-33.7767" font-family="Times,serif" font-size="14.00" fill="#000000">554 A.2d 778</text>
</g>
<!-- A&#45;&gt;p0 -->
<g id="edge1" class="edge">
<title>A&#45;&gt;p0</title>
<path fill="none" stroke="#000000" d="M116.5639,-111.4585C105.166,-96.6048 90.9872,-78.1269 79.6511,-63.3536"/>
<polygon fill="#000000" stroke="#000000" points="82.212,-60.9417 73.3476,-55.1389 76.6586,-65.2031 82.212,-60.9417"/>
</g>
<!-- p1 -->
<g id="node3" class="node">
<title>p1</title>
<ellipse fill="none" stroke="#000000" cx="214.7947" cy="-37.4767" rx="77.1494" ry="37.4533"/>
<text text-anchor="middle" x="214.7947" y="-48.7767" font-family="Times,serif" font-size="14.00" fill="#000000"> Herbert Lindsey</text>
<text text-anchor="middle" x="214.7947" y="-33.7767" font-family="Times,serif" font-size="14.00" fill="#000000">Bey v. The State</text>
<text text-anchor="middle" x="214.7947" y="-18.7767" font-family="Times,serif" font-size="14.00" fill="#000000">of Delaware</text>
</g>
<!-- A&#45;&gt;p1 -->
<g id="edge2" class="edge">
<title>A&#45;&gt;p1</title>
<path fill="none" stroke="#000000" d="M157.2883,-111.4585C164.6258,-102.0187 173.1012,-91.1152 181.2521,-80.6291"/>
<polygon fill="#000000" stroke="#000000" points="184.0239,-82.7662 187.3976,-72.7229 178.4971,-78.4702 184.0239,-82.7662"/>
</g>
</g>
</svg>
